<svg xmlns="http://www.w3.org/2000/svg" version="1.1" xmlns:xlink="http://www.w3.org/1999/xlink" xmlns:svgjs="http://svgjs.dev/svgjs" viewBox="0 0 800 800" opacity="0.49"><defs><linearGradient gradientTransform="rotate(270)" x1="50%" y1="0%" x2="50%" y2="100%" id="sssquiggly-grad"><stop stop-color="hsl(50, 98%, 60%)" stop-opacity="1" offset="0%"></stop><stop stop-color="F3A738" stop-opacity="1" offset="100%"></stop></linearGradient></defs><g stroke-width="8.5" stroke="url(#sssquiggly-grad)" fill="none" stroke-linecap="round" transform="matrix(1,0,0,1,-5,-469.73887634277344)"><path d="M10,10C26.435185185185183,11.458333333333334,53.93518518518518,26.791666666666664,88.88888888888889,17C123.84259259259258,7.208333333333334,140.74074074074073,-44.083333333333336,177.77777777777777,-37C214.8148148148148,-29.916666666666664,229.6296296296296,44.75,266.66666666666663,51C303.7037037037037,57.25,318.5185185185185,-9.708333333333332,355.55555555555554,-7C392.5925925925926,-4.291666666666667,407.40740740740745,71.91666666666667,444.44444444444446,64C481.48148148148147,56.083333333333336,496.29629629629625,-41.458333333333336,533.3333333333333,-45C570.3703703703703,-48.541666666666664,585.1851851851851,44.5,622.2222222222222,47C659.2592592592592,49.5,674.074074074074,-31.541666666666668,711.1111111111111,-33C748.1481481481482,-34.458333333333336,781.4814814814815,24.791666666666668,800,40"></path><path d="M10,10C26.435185185185183,11.458333333333334,53.93518518518518,26.791666666666664,88.88888888888889,17C123.84259259259258,7.208333333333334,140.74074074074073,-44.083333333333336,177.77777777777777,-37C214.8148148148148,-29.916666666666664,229.6296296296296,44.75,266.66666666666663,51C303.7037037037037,57.25,318.5185185185185,-9.708333333333332,355.55555555555554,-7C392.5925925925926,-4.291666666666667,407.40740740740745,71.91666666666667,444.44444444444446,64C481.48148148148147,56.083333333333336,496.29629629629625,-41.458333333333336,533.3333333333333,-45C570.3703703703703,-48.541666666666664,585.1851851851851,44.5,622.2222222222222,47C659.2592592592592,49.5,674.074074074074,-31.541666666666668,711.1111111111111,-33C748.1481481481482,-34.458333333333336,781.4814814814815,24.791666666666668,800,40" transform="matrix(1,0,0,1,0,1720)"></path><path d="M10,10C26.435185185185183,11.458333333333334,53.93518518518518,26.791666666666664,88.88888888888889,17C123.84259259259258,7.208333333333334,140.74074074074073,-44.083333333333336,177.77777777777777,-37C214.8148148148148,-29.916666666666664,229.6296296296296,44.75,266.66666666666663,51C303.7037037037037,57.25,318.5185185185185,-9.708333333333332,355.55555555555554,-7C392.5925925925926,-4.291666666666667,407.40740740740745,71.91666666666667,444.44444444444446,64C481.48148148148147,56.083333333333336,496.29629629629625,-41.458333333333336,533.3333333333333,-45C570.3703703703703,-48.541666666666664,585.1851851851851,44.5,622.2222222222222,47C659.2592592592592,49.5,674.074074074074,-31.541666666666668,711.1111111111111,-33C748.1481481481482,-34.458333333333336,781.4814814814815,24.791666666666668,800,40" transform="matrix(1,0,0,1,0,1634)"></path><path d="M10,10C26.435185185185183,11.458333333333334,53.93518518518518,26.791666666666664,88.88888888888889,17C123.84259259259258,7.208333333333334,140.74074074074073,-44.083333333333336,177.77777777777777,-37C214.8148148148148,-29.916666666666664,229.6296296296296,44.75,266.66666666666663,51C303.7037037037037,57.25,318.5185185185185,-9.708333333333332,355.55555555555554,-7C392.5925925925926,-4.291666666666667,407.40740740740745,71.91666666666667,444.44444444444446,64C481.48148148148147,56.083333333333336,496.29629629629625,-41.458333333333336,533.3333333333333,-45C570.3703703703703,-48.541666666666664,585.1851851851851,44.5,622.2222222222222,47C659.2592592592592,49.5,674.074074074074,-31.541666666666668,711.1111111111111,-33C748.1481481481482,-34.458333333333336,781.4814814814815,24.791666666666668,800,40" transform="matrix(1,0,0,1,0,1548)"></path><path d="M10,10C26.435185185185183,11.458333333333334,53.93518518518518,26.791666666666664,88.88888888888889,17C123.84259259259258,7.208333333333334,140.74074074074073,-44.083333333333336,177.77777777777777,-37C214.8148148148148,-29.916666666666664,229.6296296296296,44.75,266.66666666666663,51C303.7037037037037,57.25,318.5185185185185,-9.708333333333332,355.55555555555554,-7C392.5925925925926,-4.291666666666667,407.40740740740745,71.91666666666667,444.44444444444446,64C481.48148148148147,56.083333333333336,496.29629629629625,-41.458333333333336,533.3333333333333,-45C570.3703703703703,-48.541666666666664,585.1851851851851,44.5,622.2222222222222,47C659.2592592592592,49.5,674.074074074074,-31.541666666666668,711.1111111111111,-33C748.1481481481482,-34.458333333333336,781.4814814814815,24.791666666666668,800,40" transform="matrix(1,0,0,1,0,1462)"></path><path d="M10,10C26.435185185185183,11.458333333333334,53.93518518518518,26.791666666666664,88.88888888888889,17C123.84259259259258,7.208333333333334,140.74074074074073,-44.083333333333336,177.77777777777777,-37C214.8148148148148,-29.916666666666664,229.6296296296296,44.75,266.66666666666663,51C303.7037037037037,57.25,318.5185185185185,-9.708333333333332,355.55555555555554,-7C392.5925925925926,-4.291666666666667,407.40740740740745,71.91666666666667,444.44444444444446,64C481.48148148148147,56.083333333333336,496.29629629629625,-41.458333333333336,533.3333333333333,-45C570.3703703703703,-48.541666666666664,585.1851851851851,44.5,622.2222222222222,47C659.2592592592592,49.5,674.074074074074,-31.541666666666668,711.1111111111111,-33C748.1481481481482,-34.458333333333336,781.4814814814815,24.791666666666668,800,40" transform="matrix(1,0,0,1,0,1376)"></path><path d="M10,10C26.435185185185183,11.458333333333334,53.93518518518518,26.791666666666664,88.88888888888889,17C123.84259259259258,7.208333333333334,140.74074074074073,-44.083333333333336,177.77777777777777,-37C214.8148148148148,-29.916666666666664,229.6296296296296,44.75,266.66666666666663,51C303.7037037037037,57.25,318.5185185185185,-9.708333333333332,355.55555555555554,-7C392.5925925925926,-4.291666666666667,407.40740740740745,71.91666666666667,444.44444444444446,64C481.48148148148147,56.083333333333336,496.29629629629625,-41.458333333333336,533.3333333333333,-45C570.3703703703703,-48.541666666666664,585.1851851851851,44.5,622.2222222222222,47C659.2592592592592,49.5,674.074074074074,-31.541666666666668,711.1111111111111,-33C748.1481481481482,-34.458333333333336,781.4814814814815,24.791666666666668,800,40" transform="matrix(1,0,0,1,0,1290)"></path><path d="M10,10C26.435185185185183,11.458333333333334,53.93518518518518,26.791666666666664,88.88888888888889,17C123.84259259259258,7.208333333333334,140.74074074074073,-44.083333333333336,177.77777777777777,-37C214.8148148148148,-29.916666666666664,229.6296296296296,44.75,266.66666666666663,51C303.7037037037037,57.25,318.5185185185185,-9.708333333333332,355.55555555555554,-7C392.5925925925926,-4.291666666666667,407.40740740740745,71.91666666666667,444.44444444444446,64C481.48148148148147,56.083333333333336,496.29629629629625,-41.458333333333336,533.3333333333333,-45C570.3703703703703,-48.541666666666664,585.1851851851851,44.5,622.2222222222222,47C659.2592592592592,49.5,674.074074074074,-31.541666666666668,711.1111111111111,-33C748.1481481481482,-34.458333333333336,781.4814814814815,24.791666666666668,800,40" transform="matrix(1,0,0,1,0,1204)"></path><path d="M10,10C26.435185185185183,11.458333333333334,53.93518518518518,26.791666666666664,88.88888888888889,17C123.84259259259258,7.208333333333334,140.74074074074073,-44.083333333333336,177.77777777777777,-37C214.8148148148148,-29.916666666666664,229.6296296296296,44.75,266.66666666666663,51C303.7037037037037,57.25,318.5185185185185,-9.708333333333332,355.55555555555554,-7C392.5925925925926,-4.291666666666667,407.40740740740745,71.91666666666667,444.44444444444446,64C481.48148148148147,56.083333333333336,496.29629629629625,-41.458333333333336,533.3333333333333,-45C570.3703703703703,-48.541666666666664,585.1851851851851,44.5,622.2222222222222,47C659.2592592592592,49.5,674.074074074074,-31.541666666666668,711.1111111111111,-33C748.1481481481482,-34.458333333333336,781.4814814814815,24.791666666666668,800,40" transform="matrix(1,0,0,1,0,1118)"></path><path d="M10,10C26.435185185185183,11.458333333333334,53.93518518518518,26.791666666666664,88.88888888888889,17C123.84259259259258,7.208333333333334,140.74074074074073,-44.083333333333336,177.77777777777777,-37C214.8148148148148,-29.916666666666664,229.6296296296296,44.75,266.66666666666663,51C303.7037037037037,57.25,318.5185185185185,-9.708333333333332,355.55555555555554,-7C392.5925925925926,-4.291666666666667,407.40740740740745,71.91666666666667,444.44444444444446,64C481.48148148148147,56.083333333333336,496.29629629629625,-41.458333333333336,533.3333333333333,-45C570.3703703703703,-48.541666666666664,585.1851851851851,44.5,622.2222222222222,47C659.2592592592592,49.5,674.074074074074,-31.541666666666668,711.1111111111111,-33C748.1481481481482,-34.458333333333336,781.4814814814815,24.791666666666668,800,40" transform="matrix(1,0,0,1,0,1032)"></path><path d="M10,10C26.435185185185183,11.458333333333334,53.93518518518518,26.791666666666664,88.88888888888889,17C123.84259259259258,7.208333333333334,140.74074074074073,-44.083333333333336,177.77777777777777,-37C214.8148148148148,-29.916666666666664,229.6296296296296,44.75,266.66666666666663,51C303.7037037037037,57.25,318.5185185185185,-9.708333333333332,355.55555555555554,-7C392.5925925925926,-4.291666666666667,407.40740740740745,71.91666666666667,444.44444444444446,64C481.48148148148147,56.083333333333336,496.29629629629625,-41.458333333333336,533.3333333333333,-45C570.3703703703703,-48.541666666666664,585.1851851851851,44.5,622.2222222222222,47C659.2592592592592,49.5,674.074074074074,-31.541666666666668,711.1111111111111,-33C748.1481481481482,-34.458333333333336,781.4814814814815,24.791666666666668,800,40" transform="matrix(1,0,0,1,0,946)"></path><path d="M10,10C26.435185185185183,11.458333333333334,53.93518518518518,26.791666666666664,88.88888888888889,17C123.84259259259258,7.208333333333334,140.74074074074073,-44.083333333333336,177.77777777777777,-37C214.8148148148148,-29.916666666666664,229.6296296296296,44.75,266.66666666666663,51C303.7037037037037,57.25,318.5185185185185,-9.708333333333332,355.55555555555554,-7C392.5925925925926,-4.291666666666667,407.40740740740745,71.91666666666667,444.44444444444446,64C481.48148148148147,56.083333333333336,496.29629629629625,-41.458333333333336,533.3333333333333,-45C570.3703703703703,-48.541666666666664,585.1851851851851,44.5,622.2222222222222,47C659.2592592592592,49.5,674.074074074074,-31.541666666666668,711.1111111111111,-33C748.1481481481482,-34.458333333333336,781.4814814814815,24.791666666666668,800,40" transform="matrix(1,0,0,1,0,860)"></path><path d="M10,10C26.435185185185183,11.458333333333334,53.93518518518518,26.791666666666664,88.88888888888889,17C123.84259259259258,7.208333333333334,140.74074074074073,-44.083333333333336,177.77777777777777,-37C214.8148148148148,-29.916666666666664,229.6296296296296,44.75,266.66666666666663,51C303.7037037037037,57.25,318.5185185185185,-9.708333333333332,355.55555555555554,-7C392.5925925925926,-4.291666666666667,407.40740740740745,71.91666666666667,444.44444444444446,64C481.48148148148147,56.083333333333336,496.29629629629625,-41.458333333333336,533.3333333333333,-45C570.3703703703703,-48.541666666666664,585.1851851851851,44.5,622.2222222222222,47C659.2592592592592,49.5,674.074074074074,-31.541666666666668,711.1111111111111,-33C748.1481481481482,-34.458333333333336,781.4814814814815,24.791666666666668,800,40" transform="matrix(1,0,0,1,0,774)"></path><path d="M10,10C26.435185185185183,11.458333333333334,53.93518518518518,26.791666666666664,88.88888888888889,17C123.84259259259258,7.208333333333334,140.74074074074073,-44.083333333333336,177.77777777777777,-37C214.8148148148148,-29.916666666666664,229.6296296296296,44.75,266.66666666666663,51C303.7037037037037,57.25,318.5185185185185,-9.708333333333332,355.55555555555554,-7C392.5925925925926,-4.291666666666667,407.40740740740745,71.91666666666667,444.44444444444446,64C481.48148148148147,56.083333333333336,496.29629629629625,-41.458333333333336,533.3333333333333,-45C570.3703703703703,-48.541666666666664,585.1851851851851,44.5,622.2222222222222,47C659.2592592592592,49.5,674.074074074074,-31.541666666666668,711.1111111111111,-33C748.1481481481482,-34.458333333333336,781.4814814814815,24.791666666666668,800,40" transform="matrix(1,0,0,1,0,688)"></path><path d="M10,10C26.435185185185183,11.458333333333334,53.93518518518518,26.791666666666664,88.88888888888889,17C123.84259259259258,7.208333333333334,140.74074074074073,-44.083333333333336,177.77777777777777,-37C214.8148148148148,-29.916666666666664,229.6296296296296,44.75,266.66666666666663,51C303.7037037037037,57.25,318.5185185185185,-9.708333333333332,355.55555555555554,-7C392.5925925925926,-4.291666666666667,407.40740740740745,71.91666666666667,444.44444444444446,64C481.48148148148147,56.083333333333336,496.29629629629625,-41.458333333333336,533.3333333333333,-45C570.3703703703703,-48.541666666666664,585.1851851851851,44.5,622.2222222222222,47C659.2592592592592,49.5,674.074074074074,-31.541666666666668,711.1111111111111,-33C748.1481481481482,-34.458333333333336,781.4814814814815,24.791666666666668,800,40" transform="matrix(1,0,0,1,0,602)"></path><path d="M10,10C26.435185185185183,11.458333333333334,53.93518518518518,26.791666666666664,88.88888888888889,17C123.84259259259258,7.208333333333334,140.74074074074073,-44.083333333333336,177.77777777777777,-37C214.8148148148148,-29.916666666666664,229.6296296296296,44.75,266.66666666666663,51C303.7037037037037,57.25,318.5185185185185,-9.708333333333332,355.55555555555554,-7C392.5925925925926,-4.291666666666667,407.40740740740745,71.91666666666667,444.44444444444446,64C481.48148148148147,56.083333333333336,496.29629629629625,-41.458333333333336,533.3333333333333,-45C570.3703703703703,-48.541666666666664,585.1851851851851,44.5,622.2222222222222,47C659.2592592592592,49.5,674.074074074074,-31.541666666666668,711.1111111111111,-33C748.1481481481482,-34.458333333333336,781.4814814814815,24.791666666666668,800,40" transform="matrix(1,0,0,1,0,516)"></path><path d="M10,10C26.435185185185183,11.458333333333334,53.93518518518518,26.791666666666664,88.88888888888889,17C123.84259259259258,7.208333333333334,140.74074074074073,-44.083333333333336,177.77777777777777,-37C214.8148148148148,-29.916666666666664,229.6296296296296,44.75,266.66666666666663,51C303.7037037037037,57.25,318.5185185185185,-9.708333333333332,355.55555555555554,-7C392.5925925925926,-4.291666666666667,407.40740740740745,71.91666666666667,444.44444444444446,64C481.48148148148147,56.083333333333336,496.29629629629625,-41.458333333333336,533.3333333333333,-45C570.3703703703703,-48.541666666666664,585.1851851851851,44.5,622.2222222222222,47C659.2592592592592,49.5,674.074074074074,-31.541666666666668,711.1111111111111,-33C748.1481481481482,-34.458333333333336,781.4814814814815,24.791666666666668,800,40" transform="matrix(1,0,0,1,0,430)"></path><path d="M10,10C26.435185185185183,11.458333333333334,53.93518518518518,26.791666666666664,88.88888888888889,17C123.84259259259258,7.208333333333334,140.74074074074073,-44.083333333333336,177.77777777777777,-37C214.8148148148148,-29.916666666666664,229.6296296296296,44.75,266.66666666666663,51C303.7037037037037,57.25,318.5185185185185,-9.708333333333332,355.55555555555554,-7C392.5925925925926,-4.291666666666667,407.40740740740745,71.91666666666667,444.44444444444446,64C481.48148148148147,56.083333333333336,496.29629629629625,-41.458333333333336,533.3333333333333,-45C570.3703703703703,-48.541666666666664,585.1851851851851,44.5,622.2222222222222,47C659.2592592592592,49.5,674.074074074074,-31.541666666666668,711.1111111111111,-33C748.1481481481482,-34.458333333333336,781.4814814814815,24.791666666666668,800,40" transform="matrix(1,0,0,1,0,344)"></path><path d="M10,10C26.435185185185183,11.458333333333334,53.93518518518518,26.791666666666664,88.88888888888889,17C123.84259259259258,7.208333333333334,140.74074074074073,-44.083333333333336,177.77777777777777,-37C214.8148148148148,-29.916666666666664,229.6296296296296,44.75,266.66666666666663,51C303.7037037037037,57.25,318.5185185185185,-9.708333333333332,355.55555555555554,-7C392.5925925925926,-4.291666666666667,407.40740740740745,71.91666666666667,444.44444444444446,64C481.48148148148147,56.083333333333336,496.29629629629625,-41.458333333333336,533.3333333333333,-45C570.3703703703703,-48.541666666666664,585.1851851851851,44.5,622.2222222222222,47C659.2592592592592,49.5,674.074074074074,-31.541666666666668,711.1111111111111,-33C748.1481481481482,-34.458333333333336,781.4814814814815,24.791666666666668,800,40" transform="matrix(1,0,0,1,0,258)"></path><path d="M10,10C26.435185185185183,11.458333333333334,53.93518518518518,26.791666666666664,88.88888888888889,17C123.84259259259258,7.208333333333334,140.74074074074073,-44.083333333333336,177.77777777777777,-37C214.8148148148148,-29.916666666666664,229.6296296296296,44.75,266.66666666666663,51C303.7037037037037,57.25,318.5185185185185,-9.708333333333332,355.55555555555554,-7C392.5925925925926,-4.291666666666667,407.40740740740745,71.91666666666667,444.44444444444446,64C481.48148148148147,56.083333333333336,496.29629629629625,-41.458333333333336,533.3333333333333,-45C570.3703703703703,-48.541666666666664,585.1851851851851,44.5,622.2222222222222,47C659.2592592592592,49.5,674.074074074074,-31.541666666666668,711.1111111111111,-33C748.1481481481482,-34.458333333333336,781.4814814814815,24.791666666666668,800,40" transform="matrix(1,0,0,1,0,172)"></path><path d="M10,10C26.435185185185183,11.458333333333334,53.93518518518518,26.791666666666664,88.88888888888889,17C123.84259259259258,7.208333333333334,140.74074074074073,-44.083333333333336,177.77777777777777,-37C214.8148148148148,-29.916666666666664,229.6296296296296,44.75,266.66666666666663,51C303.7037037037037,57.25,318.5185185185185,-9.708333333333332,355.55555555555554,-7C392.5925925925926,-4.291666666666667,407.40740740740745,71.91666666666667,444.44444444444446,64C481.48148148148147,56.083333333333336,496.29629629629625,-41.458333333333336,533.3333333333333,-45C570.3703703703703,-48.541666666666664,585.1851851851851,44.5,622.2222222222222,47C659.2592592592592,49.5,674.074074074074,-31.541666666666668,711.1111111111111,-33C748.1481481481482,-34.458333333333336,781.4814814814815,24.791666666666668,800,40" transform="matrix(1,0,0,1,0,86)"></path></g></svg>